<?xml version="1.0" encoding="utf-8"?>
<!-- Generator: Adobe Illustrator 19.0.0, SVG Export Plug-In . SVG Version: 6.00 Build 0)  -->
<svg version="1.1" id="Layer_1" xmlns="http://www.w3.org/2000/svg" xmlns:xlink="http://www.w3.org/1999/xlink" x="0px" y="0px"
	 viewBox="0 0 318.7 83.9" style="enable-background:new 0 0 318.7 83.9;" xml:space="preserve">
<style type="text/css">
	.Arched_x0020_Green{fill:url(#SVGID_1_);stroke:#FFFFFF;stroke-width:0.25;stroke-miterlimit:1;}
	.st0{display:none;fill:#026499;}
	.st1{fill:#FFFFFF;}
</style>
<linearGradient id="SVGID_1_" gradientUnits="userSpaceOnUse" x1="928.3418" y1="-468.8838" x2="929.0489" y2="-469.5909">
	<stop  offset="0" style="stop-color:#20AC4B"/>
	<stop  offset="0.9831" style="stop-color:#19361A"/>
</linearGradient>
<rect x="-114.7" y="-127.3" class="st0" width="548" height="338.4"/>
<g>
	<g>
		<g>
			<path class="st1" d="M4.3,40c3.9,2.9,9.8,5.7,15.3,5.7c4,0,9.6-1.3,9.6-6.4c0-10.9-27-7.2-27-24.4c0-10,9-14.8,17.9-14.8
				c6.1,0,13.5,2.8,18.3,6.4l-4.6,8.2c-4-2.2-9.2-5.3-13.9-5.3c-3.1,0-6.8,1.1-6.8,5c0,9.9,27,6.3,27,24.8
				c0,10.9-10.7,15.8-20.2,15.8c-7.2,0-14-2.8-19.9-6.7L4.3,40z"/>
			<path class="st1" d="M45.5,22.6C45.5,10.4,54.9,0,69,0c14.1,0,23.5,10.4,23.5,22.6v31.3h-9.8V43H55.3v10.9h-9.8V22.6z M82.7,33.8
				v-9.1c0-9.7-6.1-15.5-13.7-15.5c-7.6,0-13.7,5.8-13.7,15.5v9.1H82.7z"/>
			<path class="st1" d="M100.4,1.1h9.8v29.2c0,9.7,6.1,15.5,13.7,15.5c7.7,0,13.7-5.8,13.7-15.5V1.1h9.8v31.3
				c0,12.2-9.3,22.6-23.5,22.6c-14.1,0-23.5-10.4-23.5-22.6V1.1z"/>
			<path class="st1" d="M156.7,1.1H179c17.8,0,28.4,12.5,28.4,26.4c0,14-10.9,26.4-28.4,26.4h-22.3V1.1z M179,44.7
				c11.4,0,18.6-7.8,18.6-17.2s-7.2-17.2-18.6-17.2h-12.5v34.3H179z"/>
			<path class="st1" d="M212.8,1.1h9.8v52.8h-9.8V1.1z"/>
		</g>
		<g>
			<g>
				<path class="st1" d="M266.4,44.8v9.3h-36.6V1.3h36.5v9.3h-26.8v12.7h26.8v9.1h-26.8v12.5H266.4z"/>
				<path class="st1" d="M277.3,38.7l-10.9-15.4h9.9l7.3,10.3l7.3-10.3h9.9l-10.9,15.4l28.8,40.9h-9.9l-25.3-35.8l-7.3,10.3h-9.9
					L277.3,38.7z"/>
			</g>
		</g>
	</g>
	<g>
		<path class="st1" d="M53.1,79.6H9.2c-3,0-7.5-0.6-7.5-5.1c0-3.4,1.8-5.4,4.7-5.4c2.7,0,4.6,2,4.6,5v3.4h42.2V79.6z M6.2,71
			c-1.5,0-2.5,1.2-2.5,3.2c0,3.1,2.3,3.4,5.3,3.4C9,73.9,9.2,71,6.2,71z M3.8,66.2C3.8,65.5,4.3,65,5,65s1.2,0.5,1.2,1.2
			c0,0.7-0.5,1.2-1.2,1.2S3.8,66.9,3.8,66.2z M6.8,66.2c0-0.7,0.5-1.2,1.2-1.2c0.6,0,1.2,0.5,1.2,1.2c0,0.7-0.6,1.2-1.2,1.2
			C7.4,67.4,6.8,66.9,6.8,66.2z"/>
		<path class="st1" d="M54.5,79.6h-2.1v-2.1h1.6c1.2,0,1.8-0.5,1.9-1.9v-4.5h0.7c1.1,0,1.5,0.5,1.5,1.7v2
			C57.9,77.2,57.2,79.4,54.5,79.6z M52.9,82.3c0-0.7,0.5-1.2,1.2-1.2c0.7,0,1.2,0.5,1.2,1.2s-0.5,1.2-1.2,1.2
			C53.5,83.5,52.9,83,52.9,82.3z M55.8,82.3c0-0.7,0.5-1.2,1.2-1.2c0.6,0,1.2,0.5,1.2,1.2s-0.6,1.2-1.2,1.2
			C56.3,83.5,55.8,83,55.8,82.3z"/>
		<path class="st1" d="M72.1,77.5v2.1h-0.4c-1.2,0-2.1-0.4-2.4-0.7c-0.6,0.6-1.5,0.7-3.1,0.7h-4.8c-0.6,0-1-0.6-1-1.1v-1h7.3
			c-0.2-3.3-2.1-6-4.9-6c-0.8,0-1.3,0.2-1.3,0.2l0.3-0.6c0.4-0.8,1.3-1.3,2.5-1.3c0,0,1.3,0,2.5,0.8c1.7,1,2.6,3.7,2.9,5.8
			c0.2,0.8,0.9,1.1,1.8,1.1H72.1z M63.8,66.1c0-0.7,0.5-1.2,1.2-1.2c0.6,0,1.2,0.5,1.2,1.2c0,0.7-0.6,1.2-1.2,1.2
			C64.4,67.3,63.8,66.8,63.8,66.1z"/>
		<path class="st1" d="M76.2,75.8c0,1.2,0.7,1.7,1.9,1.7h0.6v2.1h-1.1c-1-0.1-1.8-0.4-2.4-0.9c-0.6,0.6-1.4,0.9-2.4,0.9h-1.1v-2.1
			h0.6c1.2,0,1.8-0.5,1.9-1.9v-4.5h0.7c1.1,0,1.5,0.5,1.5,1.7V75.8z M72.2,82.3c0-0.7,0.5-1.2,1.2-1.2c0.7,0,1.2,0.5,1.2,1.2
			s-0.5,1.2-1.2,1.2C72.7,83.5,72.2,83,72.2,82.3z M75,82.3c0-0.7,0.5-1.2,1.2-1.2c0.6,0,1.2,0.5,1.2,1.2s-0.6,1.2-1.2,1.2
			C75.5,83.5,75,83,75,82.3z"/>
		<path class="st1" d="M78.1,77.5h7.2c-0.6-0.7-1-1.7-1-3c0-3.4,1.8-5.4,4.7-5.4c2.7,0,4.6,2,4.6,5v3.4h14.7v2.1H78.1V77.5z
			 M88.8,71c-1.5,0-2.5,1.2-2.5,3.2c0,3.1,2.3,3.4,5.3,3.4C91.6,73.9,91.8,71,88.8,71z M87.9,66.2c0-0.7,0.5-1.2,1.2-1.2
			c0.7,0,1.2,0.5,1.2,1.2c0,0.7-0.5,1.2-1.2,1.2C88.4,67.4,87.9,66.9,87.9,66.2z"/>
		<path class="st1" d="M112.4,75.8c0,1.2,0.7,1.7,1.9,1.7h0.6v2.1h-1.1c-1-0.1-1.8-0.4-2.4-0.9c-0.6,0.6-1.4,0.9-2.4,0.9H95.7v-2.1
			h12.7c1.2,0,1.8-0.5,1.9-1.9v-4.5h0.7c1.1,0,1.5,0.5,1.5,1.7V75.8z M110.1,68.6c0-0.7,0.5-1.2,1.2-1.2c0.6,0,1.2,0.5,1.2,1.2
			c0,0.7-0.6,1.2-1.2,1.2C110.6,69.8,110.1,69.3,110.1,68.6z"/>
		<path class="st1" d="M118.9,75.8c0,1.2,0.7,1.7,1.9,1.7h0.6v2.1h-1.1c-1-0.1-1.8-0.4-2.4-0.9c-0.6,0.6-1.4,0.9-2.4,0.9h-1.1v-2.1
			h0.6c1.2,0,1.8-0.5,1.9-1.9v-4.5h0.7c1.1,0,1.5,0.5,1.5,1.7V75.8z M115,68.6c0-0.7,0.5-1.2,1.2-1.2c0.7,0,1.2,0.5,1.2,1.2
			s-0.5,1.2-1.2,1.2C115.6,69.8,115,69.3,115,68.6z M117.9,68.6c0-0.7,0.5-1.2,1.2-1.2c0.6,0,1.2,0.5,1.2,1.2s-0.6,1.2-1.2,1.2
			C118.4,69.8,117.9,69.3,117.9,68.6z"/>
		<path class="st1" d="M122.2,79.6h-1.4v-2.1h0.8c1.2,0,1.8-0.5,1.9-1.9v-11h0.7c1.1,0,1.5,0.5,1.5,1.7v8.5
			C125.7,77.2,125,79.4,122.2,79.6z"/>
		<path class="st1" d="M129.5,79.6c-0.8,0-1.3-0.4-1.3-1.5V64.7h1c0.5,0,1.1,0.4,1.1,1v13.9H129.5z"/>
		<path class="st1" d="M192.9,79.6h-46.6c-3,0-7.5-0.6-7.5-5.1c0-3.4,1.8-5.4,4.7-5.4c2.7,0,4.6,2,4.6,5v3.4h44.9V79.6z M143.2,71
			c-1.5,0-2.5,1.2-2.5,3.2c0,3.1,2.3,3.4,5.3,3.4C146.1,73.9,146.3,71,143.2,71z M140.8,66.2c0-0.7,0.5-1.2,1.2-1.2
			c0.7,0,1.2,0.5,1.2,1.2c0,0.7-0.5,1.2-1.2,1.2C141.4,67.4,140.8,66.9,140.8,66.2z M143.9,66.2c0-0.7,0.5-1.2,1.2-1.2
			c0.6,0,1.2,0.5,1.2,1.2c0,0.7-0.6,1.2-1.2,1.2C144.5,67.4,143.9,66.9,143.9,66.2z"/>
		<path class="st1" d="M194.2,79.6h-2.1v-2.1h1.6c1.2,0,1.8-0.5,1.9-1.9v-4.5h0.7c1.1,0,1.5,0.5,1.5,1.7v2
			C197.7,77.2,197,79.4,194.2,79.6z M192.7,82.3c0-0.7,0.5-1.2,1.2-1.2c0.7,0,1.2,0.5,1.2,1.2s-0.5,1.2-1.2,1.2
			C193.3,83.5,192.7,83,192.7,82.3z M195.5,82.3c0-0.7,0.5-1.2,1.2-1.2c0.6,0,1.2,0.5,1.2,1.2s-0.6,1.2-1.2,1.2
			C196.1,83.5,195.5,83,195.5,82.3z"/>
		<path class="st1" d="M209.3,77.5v2.1h-8.4c-0.6,0-1-0.6-1-1.1v-1h7.3c-0.1-1.7-1.2-4.8-3-5.6c-0.8-0.3-1.5-0.4-2-0.4
			c-0.8,0-1.3,0.2-1.3,0.2l0.3-0.6c0.4-0.8,1.3-1.3,2.5-1.3c0,0,1.3,0,2.5,0.8C208.4,71.8,209.3,75.5,209.3,77.5z"/>
		<path class="st1" d="M226.7,79.6h-6.5c-0.4,2.4-2.7,4.3-5.9,4.3c-1.1,0-2.1-0.3-2.1-1.1v-1c0.4,0.1,0.8,0.1,1.2,0.1
			c2.1,0,4.3-0.8,4.7-2.3c-3-0.1-7.1-0.8-7.1-5.1c0-3.4,1.8-5.4,4.7-5.4c2.7,0,4.6,2,4.6,5c0,3.3,0,3.3,0,3.4h6.4V79.6z M218.4,77.5
			c0-3.6,0.2-6.5-2.8-6.5c-1.5,0-2.5,1.2-2.5,3.2C213,77.2,215.4,77.5,218.4,77.5z"/>
		<path class="st1" d="M240.4,79.6h-1.2c-1.9,0-2.8,0.2-5.4-1.3c-0.5,0.5-2.2,1.3-4.7,1.3h-2.8v-2.1h3.5c0.7,0,1.8-0.3,2.1-0.6
			c-1.2-1.6-3.2-2.9-4.3-3.2c0-0.4,0.1-1.4,0.1-2.1c1.9-0.8,3.6-2.4,5.9-2.4c2.9,0,4.6,1.9,5.7,2.5c-0.5,1.3-2.1,4-3.8,5.4
			c0.6,0.3,1.7,0.4,2.2,0.4c1.6,0,1.1,0,2.6,0V79.6z M233.9,75.9c1.3-1,2.2-2.3,3.3-3.9c-1.2-0.6-2.3-0.9-3.2-0.9
			c-2.2,0-3.6,1.2-4.2,1.5C231.3,73.3,232.5,75.1,233.9,75.9z"/>
		<path class="st1" d="M240.1,77.5h20.3v-7.6h0.7c1.1,0,1.5,0.5,1.5,1.7v6h2.2c1.2,0,1.8-0.5,1.9-1.9v-5.8h0.7
			c1.1,0,1.5,0.5,1.5,1.7c0,0,0,4.3,0,4.4c0,0.4-0.1,0.7-0.1,1c0.8,0.5,1.6,0.6,2.2,0.6c1.5,0,1.9-0.8,2-1.9v-5.8h0.7
			c1.1,0,1.5,0.5,1.5,1.7v4.2c0,1.2,0.7,1.7,1.9,1.7h0.6v2.1h-1.1c-1-0.1-2-0.5-2.5-1c-0.6,0.7-1.5,1-2.5,1c-2.5,0-3.5-0.8-3.6-0.9
			c-0.6,0.6-1.4,0.9-2.4,0.9h-25.2V77.5z"/>
		<path class="st1" d="M278.4,79.6h-1.4v-2.1h0.8c1.2,0,1.8-0.5,1.9-1.9v-11h0.7c1.1,0,1.5,0.5,1.5,1.7v8.5
			C281.9,77.2,281.2,79.4,278.4,79.6z"/>
		<path class="st1" d="M285.7,79.6c-0.8,0-1.3-0.4-1.3-1.5V64.7h1c0.5,0,1.1,0.4,1.1,1v13.9H285.7z"/>
	</g>
</g>
</svg>
