<?xml version="1.0" encoding="utf-8"?>
<!-- Generator: Adobe Illustrator 19.0.0, SVG Export Plug-In . SVG Version: 6.00 Build 0)  -->
<svg version="1.1" id="Isolation_Mode" xmlns="http://www.w3.org/2000/svg" xmlns:xlink="http://www.w3.org/1999/xlink" x="0px"
	 y="0px" viewBox="0 0 211.7 44.7" style="enable-background:new 0 0 211.7 44.7;" xml:space="preserve">
<style type="text/css">
	.st0{fill:#FFFFFF;}
</style>
<g>
	<path class="st0" d="M95.8,39.3l5.6-7.1L88.8,0.5h-8.7L62.5,44.7h8.5l4-10.6h18.7L95.8,39.3z M77.8,26.9l6.6-17.4L91,26.9H77.8z"/>
	<polygon class="st0" points="127.1,19.2 110.4,0.5 99.7,0.5 117.6,19.9 97.9,44.7 107.8,44.7 122.7,25.6 127.1,30.4 127.1,44.7 
		135,44.7 135,0.5 127.1,0.5 	"/>
	<polygon class="st0" points="184.4,37.6 170.5,37.6 170.5,37.6 162.9,37.6 149,37.6 149,26.4 164.6,26.4 164.6,18.9 149,18.9 
		149,7.7 170.5,7.7 170.5,0.5 141.1,0.5 141.1,44.7 162.9,44.7 170.5,44.7 195.5,44.7 190.6,37.6 	"/>
	<path class="st0" d="M22.4,31.8h8C29.3,15.3,7.9,20.5,7.9,12.7c0-4,4.6-5.2,8.7-5.2c4.6,0,8.2,1.6,10.9,3.4V3
		c-3.4-1.8-7.4-3-11.9-3C7.5,0,0,3.8,0,12.9C0,27.9,21.2,23,22.4,31.8z"/>
	<polygon class="st0" points="62.6,31 70.6,11 70.6,0.5 62.6,0.5 62.6,18.9 43.9,18.9 43.9,0.5 35.9,0.5 35.9,36.8 7.6,36.8 0,44.7 
		35.9,44.7 35.9,44.7 43.9,44.7 43.9,36.8 43.9,26.4 62.6,26.4 	"/>
	<path class="st0" d="M184.4,32.6v-3.4h7.2l10.5,15.6h9.6l-11.6-16.9c4.3-1.3,9.7-4.7,9.7-13.1c0-9.2-6.2-14.2-16.4-14.2h-17v32
		H184.4z M184.4,7.9h8.8c4.6,0,8.6,1,8.6,7c0,5.9-4,7-8.6,7h-8.8V7.9z"/>
</g>
</svg>
